<mxfile host="65bd71144e">
    <diagram id="ODTZ9djf8k1rGsvO30Or" name="Page-1">
        <mxGraphModel dx="1136" dy="606" grid="1" gridSize="10" guides="1" tooltips="1" connect="1" arrows="1" fold="1" page="1" pageScale="1" pageWidth="1200" pageHeight="1600" math="0" shadow="0">
            <root>
                <mxCell id="0"/>
                <mxCell id="1" parent="0"/>
                <mxCell id="6" style="edgeStyle=none;html=1;exitX=0.5;exitY=1;exitDx=0;exitDy=0;entryX=0.5;entryY=0;entryDx=0;entryDy=0;fillColor=#647687;strokeColor=#314354;fontFamily=Courier New;labelBorderColor=none;shadow=1;fontStyle=1;" edge="1" parent="1" source="2" target="5">
                    <mxGeometry relative="1" as="geometry"/>
                </mxCell>
                <mxCell id="2" value="Open Street Map Data (.osm)" style="rounded=1;whiteSpace=wrap;html=1;fillColor=#f5f5f5;strokeColor=#666666;fontFamily=Courier New;labelBorderColor=none;shadow=1;fontStyle=1;gradientColor=#b3b3b3;strokeWidth=4;" vertex="1" parent="1">
                    <mxGeometry x="90" y="240" width="120" height="60" as="geometry"/>
                </mxCell>
                <mxCell id="4" style="edgeStyle=none;html=1;exitX=0.5;exitY=1;exitDx=0;exitDy=0;entryX=0.5;entryY=0;entryDx=0;entryDy=0;fillColor=#647687;strokeColor=#314354;fontFamily=Courier New;labelBorderColor=none;shadow=1;fontStyle=1;" edge="1" parent="1" source="3" target="2">
                    <mxGeometry relative="1" as="geometry"/>
                </mxCell>
                <mxCell id="3" value="JAVA Open Street Map Software" style="rounded=1;whiteSpace=wrap;html=1;fillColor=#f5f5f5;strokeColor=#666666;fontFamily=Courier New;labelBorderColor=none;shadow=1;fontStyle=1;gradientColor=#b3b3b3;strokeWidth=4;" vertex="1" parent="1">
                    <mxGeometry x="90" y="130" width="120" height="60" as="geometry"/>
                </mxCell>
                <mxCell id="8" style="edgeStyle=none;html=1;exitX=0.5;exitY=1;exitDx=0;exitDy=0;entryX=0.5;entryY=0;entryDx=0;entryDy=0;fillColor=#647687;strokeColor=#314354;fontFamily=Courier New;labelBorderColor=none;shadow=1;fontStyle=1;" edge="1" parent="1" source="5" target="7">
                    <mxGeometry relative="1" as="geometry"/>
                </mxCell>
                <mxCell id="5" value="Data Cleaning" style="rounded=1;whiteSpace=wrap;html=1;fillColor=#f5f5f5;strokeColor=#666666;fontFamily=Courier New;labelBorderColor=none;shadow=1;fontStyle=1;gradientColor=#b3b3b3;strokeWidth=4;" vertex="1" parent="1">
                    <mxGeometry x="90" y="350" width="120" height="60" as="geometry"/>
                </mxCell>
                <mxCell id="9" style="edgeStyle=none;html=1;exitX=1;exitY=0.5;exitDx=0;exitDy=0;rounded=0;curved=1;fontFamily=Courier New;labelBorderColor=none;shadow=1;fontStyle=1" edge="1" parent="1" source="7">
                    <mxGeometry relative="1" as="geometry">
                        <mxPoint x="290" y="170" as="targetPoint"/>
                        <Array as="points">
                            <mxPoint x="230" y="200"/>
                        </Array>
                    </mxGeometry>
                </mxCell>
                <mxCell id="15" style="edgeStyle=none;html=1;exitX=1;exitY=0.5;exitDx=0;exitDy=0;entryX=0;entryY=0.5;entryDx=0;entryDy=0;fontFamily=Courier New;labelBorderColor=none;shadow=1;fontStyle=1" edge="1" parent="1" source="7" target="13">
                    <mxGeometry relative="1" as="geometry"/>
                </mxCell>
                <mxCell id="7" value="Cleaned Open Street Map (.osm)" style="rounded=1;whiteSpace=wrap;html=1;fillColor=#f5f5f5;strokeColor=#666666;fontFamily=Courier New;labelBorderColor=none;shadow=1;fontStyle=1;gradientColor=#b3b3b3;strokeWidth=4;" vertex="1" parent="1">
                    <mxGeometry x="90" y="460" width="120" height="60" as="geometry"/>
                </mxCell>
                <mxCell id="11" style="edgeStyle=none;html=1;exitX=0.5;exitY=1;exitDx=0;exitDy=0;fillColor=#647687;strokeColor=#314354;fontFamily=Courier New;labelBorderColor=none;shadow=1;fontStyle=1;" edge="1" parent="1" source="10">
                    <mxGeometry relative="1" as="geometry">
                        <mxPoint x="350" y="240" as="targetPoint"/>
                    </mxGeometry>
                </mxCell>
                <mxCell id="10" value="Osm2Matsim Converter" style="rounded=1;whiteSpace=wrap;html=1;fillColor=#dae8fc;strokeColor=#6c8ebf;fontFamily=Courier New;labelBorderColor=none;shadow=1;fontStyle=1;gradientColor=#7ea6e0;strokeWidth=4;" vertex="1" parent="1">
                    <mxGeometry x="290" y="130" width="120" height="60" as="geometry"/>
                </mxCell>
                <mxCell id="16" style="edgeStyle=none;html=1;exitX=0.5;exitY=1;exitDx=0;exitDy=0;entryX=0.5;entryY=0;entryDx=0;entryDy=0;fillColor=#647687;strokeColor=#314354;fontFamily=Courier New;labelBorderColor=none;shadow=1;fontStyle=1;" edge="1" parent="1" source="12" target="13">
                    <mxGeometry relative="1" as="geometry"/>
                </mxCell>
                <mxCell id="12" value="Matsim Network (.xml)" style="rounded=1;whiteSpace=wrap;html=1;fillColor=#dae8fc;strokeColor=#6c8ebf;fontFamily=Courier New;labelBorderColor=none;shadow=1;fontStyle=1;gradientColor=#7ea6e0;strokeWidth=4;" vertex="1" parent="1">
                    <mxGeometry x="290" y="240" width="120" height="60" as="geometry"/>
                </mxCell>
                <mxCell id="13" value="Open Elevation API" style="rounded=1;whiteSpace=wrap;html=1;fillColor=#e6d0de;strokeColor=#996185;fontFamily=Courier New;labelBorderColor=none;shadow=1;fontStyle=1;gradientColor=#d5739d;strokeWidth=4;" vertex="1" parent="1">
                    <mxGeometry x="290" y="460" width="120" height="60" as="geometry"/>
                </mxCell>
                <mxCell id="18" style="edgeStyle=none;html=1;exitX=1;exitY=0.5;exitDx=0;exitDy=0;rounded=0;curved=1;fontFamily=Courier New;labelBorderColor=none;shadow=1;fontStyle=1" edge="1" parent="1">
                    <mxGeometry relative="1" as="geometry">
                        <mxPoint x="490" y="170" as="targetPoint"/>
                        <mxPoint x="410" y="490" as="sourcePoint"/>
                        <Array as="points">
                            <mxPoint x="430" y="200"/>
                        </Array>
                    </mxGeometry>
                </mxCell>
                <mxCell id="20" style="edgeStyle=none;html=1;fontFamily=Courier New;labelBorderColor=none;shadow=1;fontStyle=1;fillColor=#647687;strokeColor=#314354;" edge="1" parent="1" source="19">
                    <mxGeometry relative="1" as="geometry">
                        <mxPoint x="550" y="240" as="targetPoint"/>
                    </mxGeometry>
                </mxCell>
                <mxCell id="19" value="Matsim Network with Slopes (.xml)" style="rounded=1;whiteSpace=wrap;html=1;fillColor=#dae8fc;strokeColor=#6c8ebf;fontFamily=Courier New;labelBorderColor=none;shadow=1;fontStyle=1;gradientColor=#7ea6e0;strokeWidth=4;" vertex="1" parent="1">
                    <mxGeometry x="490" y="130" width="120" height="60" as="geometry"/>
                </mxCell>
                <mxCell id="22" style="edgeStyle=none;html=1;exitX=0.5;exitY=1;exitDx=0;exitDy=0;fontFamily=Courier New;labelBorderColor=none;shadow=1;fontStyle=1;fillColor=#647687;strokeColor=#314354;" edge="1" parent="1" source="21">
                    <mxGeometry relative="1" as="geometry">
                        <mxPoint x="550" y="360" as="targetPoint"/>
                    </mxGeometry>
                </mxCell>
                <mxCell id="21" value="Matsim Reinforcement Learning Framework" style="rounded=1;whiteSpace=wrap;html=1;fillColor=#f8cecc;strokeColor=#b85450;fontFamily=Courier New;labelBorderColor=none;shadow=1;fontStyle=1;gradientColor=#ea6b66;strokeWidth=4;" vertex="1" parent="1">
                    <mxGeometry x="490" y="240" width="120" height="60" as="geometry"/>
                </mxCell>
                <mxCell id="23" value="Charger Configurations&lt;div&gt;&lt;font style=&quot;color: rgb(0, 0, 0);&quot;&gt;(.csv)&lt;/font&gt;&lt;/div&gt;" style="rounded=1;whiteSpace=wrap;html=1;fillColor=#d5e8d4;strokeColor=#82b366;fontFamily=Courier New;labelBorderColor=none;shadow=1;fontStyle=1;gradientColor=#97d077;strokeWidth=4;" vertex="1" parent="1">
                    <mxGeometry x="490" y="360" width="120" height="60" as="geometry"/>
                </mxCell>
            </root>
        </mxGraphModel>
    </diagram>
</mxfile>